<svg width="511" height="511" viewBox="0 0 511 511" fill="none" xmlns="http://www.w3.org/2000/svg">
<rect width="511" height="511" fill="black"/>
<path d="M185.793 359.031C186.886 360.034 188.253 360.581 189.529 360.581C190.804 360.581 192.262 360.034 193.265 359.031L205.84 347.003C206.933 346.001 207.571 344.543 207.571 343.085C207.571 341.627 206.933 340.169 205.84 339.167L118.545 255.79L205.84 172.413C206.933 171.411 207.571 169.953 207.571 168.495C207.571 167.037 206.933 165.579 205.84 164.577L193.265 152.549C192.171 151.546 190.896 151 189.529 151C188.162 151 186.795 151.546 185.793 152.549L81.7313 251.872C80.6378 252.874 80 254.332 80 255.79C80 257.248 80.6378 258.706 81.7313 259.708L185.793 359.031ZM391.455 255.79L304.16 339.167C303.067 340.169 302.429 341.627 302.429 343.085C302.429 344.543 303.067 346.001 304.16 347.003L316.735 359.031C317.829 360.034 319.196 360.581 320.471 360.581C321.747 360.581 323.205 360.034 324.207 359.031L428.269 259.708C429.362 258.706 430 257.248 430 255.79C430 254.332 429.362 252.874 428.269 251.872L324.207 152.549C323.114 151.546 321.747 151 320.471 151C319.104 151 317.738 151.546 316.735 152.549L304.16 164.577C303.067 165.579 302.429 167.037 302.429 168.495C302.429 169.953 303.067 171.411 304.16 172.413L391.455 255.79Z" fill="white"/>
<path d="M185.064 245.585C184.973 249.139 186.34 252.51 188.891 255.062L188.982 255.153C191.442 257.613 194.632 258.98 198.094 258.98C201.284 258.98 204.291 257.795 206.66 255.699L242.106 224.171V320.852C242.106 327.959 247.938 333.791 255.046 333.791C262.153 333.791 267.985 327.959 267.985 320.852V224.08L303.431 255.608C305.801 257.704 308.899 258.889 311.997 258.889C315.46 258.889 318.74 257.522 321.2 255.062L321.291 254.97C323.843 252.419 325.119 249.139 325.119 245.494C325.027 241.94 323.569 238.66 320.927 236.199L263.702 183.622C261.333 181.435 258.235 180.25 255.046 180.25C251.856 180.25 248.758 181.435 246.389 183.622L189.164 236.199C186.613 238.751 185.064 242.031 185.064 245.585Z" fill="white"/>
</svg>
