<svg width="350" height="206" viewBox="0 0 350 206" fill="none" xmlns="http://www.w3.org/2000/svg">
<path d="M105.793 204.249C106.886 205.233 108.253 205.77 109.529 205.77C110.804 205.77 112.262 205.233 113.265 204.249L125.84 192.44C126.933 191.456 127.571 190.024 127.571 188.593C127.571 187.161 126.933 185.73 125.84 184.746L38.545 102.885L125.84 21.024C126.933 20.04 127.571 18.609 127.571 17.177C127.571 15.746 126.933 14.314 125.84 13.33L113.265 1.521C112.171 0.536996 110.896 0 109.529 0C108.162 0 106.795 0.536996 105.793 1.521L1.7313 99.038C0.6378 100.022 0 101.454 0 102.885C0 104.317 0.6378 105.748 1.7313 106.732L105.793 204.249ZM311.455 102.885L224.16 184.746C223.067 185.73 222.429 187.161 222.429 188.593C222.429 190.024 223.067 191.456 224.16 192.44L236.735 204.249C237.829 205.233 239.196 205.77 240.471 205.77C241.747 205.77 243.205 205.233 244.207 204.249L348.269 106.732C349.362 105.748 350 104.317 350 102.885C350 101.454 349.362 100.022 348.269 99.038L244.207 1.521C243.114 0.536996 241.747 0 240.471 0C239.104 0 237.738 0.536996 236.735 1.521L224.16 13.33C223.067 14.314 222.429 15.746 222.429 17.177C222.429 18.609 223.067 20.04 224.16 21.024L311.455 102.885Z" fill="black"/>
<path d="M105.064 92.865C104.973 96.354 106.34 99.664 108.891 102.169L108.982 102.259C111.442 104.674 114.632 106.016 118.094 106.016C121.284 106.016 124.291 104.853 126.66 102.795L162.106 71.84V166.763C162.106 173.741 167.938 179.467 175.046 179.467C182.153 179.467 187.985 173.741 187.985 166.763V71.751L223.431 102.706C225.801 104.764 228.899 105.927 231.997 105.927C235.46 105.927 238.74 104.585 241.2 102.169L241.291 102.08C243.843 99.575 245.119 96.354 245.119 92.775C245.027 89.286 243.569 86.065 240.927 83.65L183.702 32.028C181.333 29.881 178.235 28.718 175.046 28.718C171.856 28.718 168.758 29.881 166.389 32.028L109.164 83.65C106.613 86.155 105.064 89.376 105.064 92.865Z" fill="black"/>
</svg>
