<svg width="511" height="511" viewBox="0 0 511 511" fill="none" xmlns="http://www.w3.org/2000/svg">
<rect width="511" height="511" fill="#FF858D"/>
<path d="M185.793 355.249C186.886 356.233 188.253 356.77 189.529 356.77C190.804 356.77 192.262 356.233 193.265 355.249L205.84 343.44C206.933 342.456 207.571 341.024 207.571 339.593C207.571 338.161 206.933 336.73 205.84 335.746L118.545 253.885L205.84 172.024C206.933 171.04 207.571 169.609 207.571 168.177C207.571 166.746 206.933 165.314 205.84 164.33L193.265 152.521C192.171 151.537 190.896 151 189.529 151C188.162 151 186.795 151.537 185.793 152.521L81.7313 250.038C80.6378 251.022 80 252.454 80 253.885C80 255.317 80.6378 256.748 81.7313 257.732L185.793 355.249ZM391.455 253.885L304.16 335.746C303.067 336.73 302.429 338.161 302.429 339.593C302.429 341.024 303.067 342.456 304.16 343.44L316.735 355.249C317.829 356.233 319.196 356.77 320.471 356.77C321.747 356.77 323.205 356.233 324.207 355.249L428.269 257.732C429.362 256.748 430 255.317 430 253.885C430 252.454 429.362 251.022 428.269 250.038L324.207 152.521C323.114 151.537 321.747 151 320.471 151C319.104 151 317.738 151.537 316.735 152.521L304.16 164.33C303.067 165.314 302.429 166.746 302.429 168.177C302.429 169.609 303.067 171.04 304.16 172.024L391.455 253.885Z" fill="#FFD4D4"/>
<path d="M185.064 243.865C184.973 247.354 186.34 250.664 188.891 253.169L188.982 253.259C191.442 255.674 194.632 257.016 198.094 257.016C201.284 257.016 204.291 255.853 206.66 253.795L242.106 222.84V317.763C242.106 324.741 247.938 330.467 255.046 330.467C262.153 330.467 267.985 324.741 267.985 317.763V222.751L303.431 253.706C305.801 255.764 308.899 256.927 311.997 256.927C315.46 256.927 318.74 255.585 321.2 253.169L321.291 253.08C323.843 250.575 325.119 247.354 325.119 243.775C325.027 240.286 323.569 237.065 320.927 234.65L263.702 183.028C261.333 180.881 258.235 179.718 255.046 179.718C251.856 179.718 248.758 180.881 246.389 183.028L189.164 234.65C186.613 237.155 185.064 240.376 185.064 243.865V243.865Z" fill="#FFD4D4"/>
</svg>
